<svg width="154" height="122" fill="none" xmlns="http://www.w3.org/2000/svg"><path d="M43.81 98.814c8.095-7.655 14.207-16.176 18.328-25.572 4.122-9.386 6.187-19.215 6.187-29.477 0-13.007-3.144-23.545-9.432-31.642C52.596 4.043 44.317 0 34.047 0 24.938 0 17.14 3.252 10.63 9.755 4.12 16.25.867 24.2.867 33.585c0 6.79 1.696 12.464 5.098 17.015 3.393 4.55 9.072 8.852 17.028 12.896 5.209 2.745 8.814 5.168 10.842 7.26 2.019 2.1 3.033 4.513 3.033 7.258 0 11.413-12.29 23.693-36.868 36.838L4.342 122c16.918-6.789 30.074-14.518 39.478-23.186m69.726 12.242c5.273-3.104 10.657-7.185 16.161-12.242C145.896 83.504 154 65.154 154 43.774c0-13.007-3.144-23.545-9.431-31.642C138.263 4.044 130.057 0 119.935 0c-9.109 0-16.955 3.289-23.528 9.857-6.583 6.577-9.865 14.48-9.865 23.729 0 6.936 1.623 12.565 4.877 16.903 3.255 4.34 8.998 8.669 17.24 13.007 9.247 4.772 13.885 9.608 13.885 14.518 0 11.56-12.29 23.84-36.869 36.838L90.01 122c10.408-4.191 18.254-7.839 23.537-10.944z" fill="#fff"/></svg>