<svg width="211" height="38" fill="none" xmlns="http://www.w3.org/2000/svg"><path d="M66.316 19.653v3.477c0 2.601-.426 4.297-1.504 5.513-1.022 1.159-2.61 1.894-4.966 1.894-2.356 0-3.945-.735-4.966-1.894-1.079-1.216-1.505-2.912-1.505-5.513v-5.145c0-2.515.455-4.268 1.561-5.512 1.05-1.159 2.64-1.837 4.825-1.837 1.986 0 3.405.565 4.427 1.526.965.961 1.646 2.375 1.816 4.778l-3.576.282c-.113-1.046-.34-1.837-.738-2.403-.425-.593-1.05-.904-1.93-.904-.88 0-1.532.283-1.957.791-.483.566-.71 1.386-.71 2.77v6.135c0 1.555.255 2.233.681 2.77.454.566 1.192.848 2.129.848.936 0 1.645-.282 2.1-.848.425-.537.68-1.215.68-2.77v-1.046H59.79v-2.912h6.527zm2.668 8.96c-1.05-1.216-1.504-2.856-1.504-5.513v-5.032c0-2.685.453-4.325 1.504-5.54 1.05-1.216 2.752-1.894 4.937-1.894 2.185 0 3.888.678 4.938 1.894 1.05 1.215 1.504 2.855 1.504 5.54V23.1c0 2.657-.454 4.297-1.504 5.512-1.05 1.216-2.752 1.923-4.938 1.923-2.185 0-3.887-.707-4.937-1.922zm6.952-2.177c.511-.594.71-1.385.71-2.657V17.39c0-1.272-.199-2.092-.71-2.686-.454-.48-1.107-.791-2.015-.791-.908 0-1.56.31-2.015.791-.51.594-.709 1.414-.709 2.686v6.389c0 1.272.199 2.063.71 2.657.454.509 1.106.791 2.014.791.908 0 1.561-.282 2.015-.791zm6.695-15.574h3.69v16.309h5.59v3.138h-9.28V10.862zm11.069 0h5.675c2.384 0 4.03.51 5.08 1.612 1.163 1.187 1.617 3.053 1.617 5.512v5.201c0 2.46-.454 4.297-1.617 5.513-1.05 1.074-2.696 1.611-5.08 1.611h-5.676V10.862zm5.476 16.394c1.164 0 1.987-.226 2.469-.792.539-.622.681-1.583.681-2.713v-6.333c0-1.159-.142-2.12-.681-2.713-.482-.594-1.305-.82-2.469-.82h-1.788v13.37h1.788zm14.554 1.554c-.823-.904-1.334-2.176-1.476-3.76l3.434-.395c.142.876.34 1.413.652 1.81.398.621 1.05.96 1.93.96 1.391 0 2.214-.791 2.214-2.176v-.142c0-1.498-.54-2.092-2.696-2.996l-1.164-.48c-2.838-1.131-4.2-2.658-4.2-5.541v-.255c0-3.194 2.157-5.201 5.761-5.201 1.618 0 2.866.367 3.803 1.13 1.192.905 1.873 2.347 2.015 4.297l-3.406.396c-.085-.82-.284-1.442-.624-1.894-.397-.537-.965-.82-1.816-.82-1.363 0-2.1.764-2.1 2.064v.141c0 1.329.596 1.95 2.554 2.742l1.192.51c3.093 1.243 4.313 2.459 4.313 5.568v.367c0 3.28-2.072 5.4-5.817 5.4-1.987 0-3.548-.594-4.569-1.725zM128.629 14h-3.888v-3.138h11.465V14h-3.888v16.31h-3.689V14zm15.804 12.153h-4.541c-.227 1.386-.454 2.77-.652 4.156h-3.803a549.27 549.27 0 013.831-19.447h5.733a525.737 525.737 0 013.916 19.447h-3.831c-.227-1.414-.426-2.827-.653-4.156zm-.511-3.053c-.142-.763-.255-1.498-.397-2.176a148.997 148.997 0 00-1.277-6.756h-.284c-.397 2.148-.88 4.664-1.192 6.756-.113.678-.255 1.413-.369 2.176h3.519zm15.096 7.209a554.534 554.534 0 00-2.555-7.152h-2.071v7.152h-3.689V10.862h5.562c4.03 0 6.271 1.357 6.271 5.57v1.102c0 2.685-.964 4.24-2.696 5.003a200.52 200.52 0 013.094 7.774h-3.916v-.002zm-2.867-10.177c1.731 0 2.668-.678 2.668-2.714v-.848c0-2.007-.88-2.685-2.668-2.685h-1.759v6.247h1.759zm12.768-9.27h3.689v16.309h5.591v3.138h-9.28V10.862zm10.583 0h3.689V30.31h-3.689V10.862zm6.47 0h3.179l3.547 7.209c.738 1.526 1.674 3.59 2.213 4.862h.086a274.998 274.998 0 01-.057-4.806v-7.265h3.405V30.31h-3.121l-3.633-7.407a103.516 103.516 0 01-2.185-4.833h-.085c.028 1.498.057 3.392.057 4.834v7.406h-3.406V10.862zm15.068 0h9.958V14h-6.271v4.919h5.817v3.138h-5.817v5.116h6.271v3.138h-9.958V10.862z" fill="#fff"/><path fill-rule="evenodd" clip-rule="evenodd" d="M41.964 4.86c1.2 5.845 3.213 11.569 6.72 16.374.128.176.014.433-.256.57-6.578 3.323-14.971 5.086-22.937 6.306-9.43 1.226-17.564 3.042-24.861 9.157-.38.263-.664.167-.627-.226C1.018 26.225 1.217 14.715.298 3.395c-.033-.414.17-.91.452-1.085 6.158-3.7 12.255-2.2 18.398-.687.612.15 1.225.302 1.838.447 6.767 1.818 13.58 3.132 20.386 2.453.282-.026.548.124.592.337zm-12.78 11.808a722.866 722.866 0 012.909-3.12h-.002c.386-.414-.077-1.103-.786-1.199a71.623 71.623 0 01-5.217-.896 1.19 1.19 0 01-.712-.474 99.323 99.323 0 01-3.067-4.701c-.413-.67-1.281-.83-1.48-.248l-.167.488c-.436 1.273-.88 2.574-1.341 3.902a.62.62 0 01-.555.42c-1.641.135-3.285.32-4.942.613-.672.12-.851 1.074-.295 1.59a123.834 123.834 0 004.163 3.718.952.952 0 01.347.75 275.236 275.236 0 01-.24 5.197c-.044.712.819 1.133 1.456.74 1.56-.96 3.076-1.835 4.558-2.664.238-.133.548-.15.836-.05a59.791 59.791 0 005.501 1.633c.77.185 1.417-.341 1.103-.883a58.534 58.534 0 01-2.153-4.17c-.107-.233-.076-.475.083-.646z" fill="#fff"/></svg>