<svg width="458" height="82" fill="none" xmlns="http://www.w3.org/2000/svg"><g clip-path="url(#clip0_92_1946)"><path d="M144.103 42.567v7.53c0 5.633-.922 9.307-3.258 11.94-2.212 2.51-5.654 4.102-10.756 4.102s-8.543-1.592-10.756-4.102c-2.336-2.633-3.258-6.307-3.258-11.94V38.955c0-5.449.984-9.245 3.381-11.939 2.274-2.51 5.716-3.98 10.449-3.98 4.302 0 7.375 1.225 9.588 3.307 2.09 2.082 3.565 5.143 3.934 10.347l-7.745.612c-.246-2.265-.737-3.98-1.598-5.204-.922-1.286-2.274-1.96-4.179-1.96-1.906 0-3.319.613-4.241 1.715-1.045 1.225-1.537 3-1.537 6v13.286c0 3.368.553 4.837 1.475 6 .984 1.225 2.582 1.837 4.61 1.837 2.028 0 3.565-.612 4.548-1.836.922-1.164 1.475-2.633 1.475-6v-2.266h-6.269v-6.306h14.137zm5.777 19.403c-2.274-2.633-3.258-6.184-3.258-11.939V39.133c0-5.817.984-9.368 3.258-12 2.274-2.633 5.962-4.103 10.694-4.103 4.733 0 8.421 1.47 10.695 4.102 2.274 2.633 3.258 6.184 3.258 12v10.899c0 5.755-.984 9.306-3.258 11.939-2.274 2.633-5.962 4.163-10.695 4.163-4.732 0-8.42-1.53-10.694-4.163zm15.058-4.714c1.107-1.286 1.537-3 1.537-5.756V37.663c0-2.755-.43-4.53-1.537-5.816-.983-1.041-2.397-1.715-4.364-1.715-1.966 0-3.38.674-4.364 1.715-1.106 1.286-1.536 3.061-1.536 5.816V51.5c0 2.756.43 4.47 1.536 5.756.984 1.102 2.398 1.714 4.364 1.714 1.967 0 3.381-.612 4.364-1.714zm14.502-33.731h7.991v35.323h12.108v6.796H179.44v-42.12zm23.971 0h12.293c5.163 0 8.728 1.102 11.002 3.49 2.52 2.571 3.503 6.612 3.503 11.939v11.265c0 5.327-.983 9.307-3.503 11.94-2.274 2.326-5.839 3.49-11.002 3.49h-12.293V23.524zm11.863 35.506c2.52 0 4.302-.49 5.347-1.714 1.168-1.347 1.475-3.429 1.475-5.878V37.725c0-2.51-.307-4.592-1.475-5.878-1.045-1.286-2.827-1.776-5.347-1.776h-3.873v28.96h3.873zm31.521 3.368c-1.783-1.96-2.889-4.715-3.196-8.143l7.437-.858c.307 1.898.737 3.062 1.413 3.919.861 1.347 2.275 2.082 4.18 2.082 3.012 0 4.794-1.715 4.794-4.715v-.306c0-3.245-1.168-4.53-5.839-6.49l-2.52-1.04c-6.146-2.45-9.097-5.756-9.097-12.001v-.551c0-6.919 4.672-11.266 12.478-11.266 3.503 0 6.208.796 8.236 2.45 2.581 1.959 4.056 5.081 4.364 9.306l-7.376.857c-.184-1.776-.615-3.123-1.352-4.102-.861-1.164-2.09-1.776-3.934-1.776-2.95 0-4.548 1.653-4.548 4.47v.306c0 2.877 1.291 4.224 5.532 5.939l2.581 1.102c6.7 2.694 9.343 5.326 9.343 12.061v.796c0 7.102-4.487 11.694-12.601 11.694-4.302 0-7.683-1.285-9.895-3.734zm32.268-32.078h-8.42v-6.796h24.831v6.796h-8.42v35.323h-7.991V30.32zm34.232 26.323h-9.835c-.491 3-.983 6-1.413 9h-8.236c2.52-14.144 5.347-28.47 8.297-42.12h12.416c3.012 13.532 5.901 27.981 8.482 42.12h-8.298c-.491-3.062-.922-6.123-1.413-9zm-1.107-6.613c-.307-1.653-.553-3.245-.86-4.714a322.335 322.335 0 00-2.766-14.633h-.615c-.86 4.653-1.905 10.102-2.581 14.633-.246 1.47-.553 3.061-.799 4.714h7.621zm32.695 15.613c-1.721-4.96-3.688-10.409-5.532-15.49h-4.487v15.49h-7.99v-42.12h12.047c8.728 0 13.584 2.94 13.584 12.062v2.388c0 5.817-2.09 9.184-5.84 10.837 2.336 5.572 4.61 11.205 6.7 16.837h-8.482v-.004zm-6.208-22.042c3.749 0 5.778-1.47 5.778-5.877v-1.837c0-4.347-1.906-5.817-5.778-5.817h-3.811v13.531h3.811zm27.653-20.077h7.99v35.323h12.109v6.796h-20.099v-42.12zm22.922 0h7.99v42.119h-7.99v-42.12zm14.014 0h6.884l7.683 15.613c1.598 3.306 3.626 7.775 4.794 10.53h.184c-.061-3.245-.123-7.347-.123-10.408V23.525h7.376v42.119h-6.761l-7.867-16.042c-1.66-3.428-3.565-7.653-4.733-10.47h-.185c.062 3.246.123 7.348.123 10.47v16.042h-7.375v-42.12zm32.632 0h21.57v6.796h-13.584v10.653h12.6v6.796h-12.6v11.082h13.584v6.796h-21.57V23.525zM105.909 45.99c-7.593-10.408-11.952-22.804-14.552-35.464-.095-.461-.672-.786-1.282-.73-14.742 1.47-29.498-1.375-44.155-5.312C31.264.998 16.758-3.81 2.092 5.002c-.61.381-1.05 1.455-.979 2.35 1.99 24.518 1.56 49.447-.638 72.873-.08.852.534 1.06 1.357.49C17.637 67.47 35.254 63.538 55.679 60.882c17.253-2.642 35.432-6.462 49.677-13.658.587-.297.832-.852.553-1.234" fill="#133D60"/><path d="M69.977 29.342c-2.066 2.2-4.156 4.446-6.302 6.758-.345.372-.411.895-.18 1.399a126.842 126.842 0 004.662 9.033c.68 1.173-.719 2.313-2.388 1.912a129.518 129.518 0 01-11.914-3.537c-.624-.216-1.296-.179-1.811.109a275.655 275.655 0 00-9.872 5.769c-1.38.853-3.248-.061-3.154-1.601.208-3.759.383-7.508.52-11.256.024-.603-.26-1.206-.751-1.625-3.064-2.6-6.057-5.303-9.017-8.054-1.205-1.116-.818-3.184.639-3.443 3.588-.636 7.148-1.036 10.704-1.328.572-.047 1.021-.386 1.2-.909 1.126-3.245 2.209-6.414 3.268-9.509.43-1.262 2.312-.913 3.205.537A215.016 215.016 0 0055.43 23.78c.364.518.936.9 1.542 1.026 3.754.777 7.522 1.446 11.3 1.94 1.536.208 2.538 1.7 1.702 2.596" fill="#FDC200"/></g><defs><clipPath id="clip0_92_1946"><path fill="#fff" transform="translate(.47)" d="M0 0h457v81.035H0z"/></clipPath></defs></svg>