<svg width="479" height="81" fill="none" xmlns="http://www.w3.org/2000/svg"><g clip-path="url(#clip0_92_1938)"><path d="M19.707 65.88l-9.12-56.858s6.631-3.113 19.102-.652c12.429 2.46 12.022 1.121 20.315.245 8.797-.953 13.417 1.809 15.373 2.383 3.056.912 8.594-.02 13.683.358 4.024.294 3.785.876 8.146 2.425 3.652 1.304 8.334.463 8.334.463s-.259 5.776 3.057 10.999c3.393 5.313 5.012 10.2 5.482 17.889.469 7.697-.372 16.102 3.315 21.507 3.302 4.843 2.664 6.519 2.664 8.517 0 2.348-.259 3.168-.575 3.19-.392.02-1.135-.316-1.135-.316l.168-1.213s-8.012-2.538-13.27-3.28c-5.98-.842-12.99 2.334-18.576 1.787-7.662-.743-13.214-5.272-19.194-5.349-6.652-.077-10.36 2.475-17.335 1.1-6.968-1.38-9.372-3.651-13.508-4.079-4.136-.47-6.912.897-6.912.897" fill="#0A63A4"/><path d="M18.859 81c-1.1 0-1.746-.294-1.928-.876l-.014-.063L5.687 9.849C3.192 9.373 1.271 7.851.997 5.882c-.14-1.01.155-2.012.856-2.91C2.939 1.579 4.888.61 7.075.38c3.715-.38 7.017 1.443 7.388 4.072.14 1.016-.154 2.033-.869 2.937-.603.764-1.472 1.402-2.495 1.857 2.797 16.937 11.44 69.273 11.384 69.876-.05.806-.989 1.703-2.986 1.857a6.731 6.731 0 01-.631.028m-1.073-1.128c.056.09.435.315 1.634.217 1.598-.12 2.145-.75 2.166-1.038-.07-1.086-7.382-45.522-11.342-69.482a9.42 9.42 0 01-1.865.385 9.33 9.33 0 01-1.767.021L17.793 79.88zM8.07 1.22c-.294 0-.595.014-.904.05-1.949.21-3.673 1.05-4.612 2.25-.547.7-.785 1.478-.673 2.235.301 2.174 3.182 3.653 6.407 3.31 1.941-.197 3.666-1.031 4.605-2.223.554-.708.792-1.493.687-2.264-.273-1.949-2.656-3.35-5.51-3.35" fill="#0A63A4"/><path d="M47.992 40.98l-20.91-12.968 24.864 1.62L55.9 18.113l7.507 11.797 24.269 1.438-17.147 10.62 12.26 19.817-22.62-13.494L41.284 59.71l6.708-18.73z" fill="#998943"/><path d="M105.768 68.487a.408.408 0 01-.182-.041c-.021-.007-2.075-.933-6.358-2.04-5.335-1.395-9.891-.779-15.646.007-5.153.694-7.263.799-13.719-1.837-5.355-2.173-15.022-1.465-15.12-1.458-1.41-.021-3.106.245-4.907.533-4.234.666-9.506 1.5-13.985-.842-5.72-2.993-12.134-2.418-12.197-2.411a.442.442 0 01-.484-.4.453.453 0 01.4-.49c.273-.028 6.743-.61 12.702 2.51 4.22 2.207 9.113 1.436 13.43.75 1.844-.288 3.59-.561 5.02-.54.364-.028 9.926-.73 15.478 1.52 6.274 2.552 8.18 2.461 13.27 1.781 5.86-.799 10.487-1.43 15.996.014 4.368 1.136 6.421 2.054 6.506 2.096.224.106.322.365.224.59a.453.453 0 01-.407.258m-11.384-46.7a.428.428 0 01-.238-.07c-.028-.014-2.685-1.69-6.933-2.797-4.038-1.058-4.865-1.01-8.349-.813a176.46 176.46 0 01-4.136.196c-.54.014-1.058.035-1.549.056-4.865.183-7.81.288-12.267-1.906-4.795-2.356-12.773-1.437-12.85-1.43-2.047.077-3.729.336-5.355.595-3.912.617-7.298 1.143-13.565-1.156-8.643-3.155-14.314-1.066-14.37-1.045a.446.446 0 01-.316-.834c.246-.091 6.022-2.236 15.002 1.045 6.05 2.222 9.33 1.71 13.116 1.114 1.647-.26 3.357-.526 5.425-.603.302-.035 8.279-.953 13.312 1.522 4.262 2.095 7.115 1.99 11.84 1.815.498-.02 1.016-.035 1.556-.056 1.732-.063 3.056-.133 4.122-.196 3.596-.204 4.451-.246 8.622.84 4.396 1.144 7.08 2.833 7.193 2.91a.446.446 0 01-.245.82M21.081 58.933s-.063 0-.091-.007a.451.451 0 01-.35-.526c4.64-22.873-6.702-40.679-6.814-40.854a.444.444 0 01.133-.617.444.444 0 01.617.134c.119.182 11.657 18.274 6.94 41.52a.448.448 0 01-.435.357" fill="#fff"/><path d="M148.613 33.024l-.294 3.596c-1.774-.764-3.786-1.121-6.022-1.121-2.65 0-4.752.729-6.302 2.215-1.437 1.402-2.18 3.224-2.18 5.482 0 2.257.708 4.044 2.145 5.481 1.437 1.437 3.372 2.124 5.833 2.124 1.17 0 2.201-.09 3.112-.294v-5.538h-4.956v-3.35h9.428v11.44c-2.986.729-5.481 1.1-7.563 1.1-3.912 0-6.989-.876-9.247-2.608-2.383-1.864-3.582-4.528-3.582-8.033s1.136-6.414 3.414-8.405c2.271-1.977 5.426-2.98 9.415-2.98 2.404 0 4.675.295 6.855.877l-.056.021v-.007zm5.146 10.045c0-3.315 1.002-5.965 3.021-7.942 2.012-1.977 4.83-2.98 8.461-2.98 3.631 0 6.393 1.003 8.44 3.036 1.977 1.977 2.979 4.606 2.979 7.886 0 3.281-.967 5.966-2.944 7.943-2.033 2.068-4.886 3.112-8.496 3.112-3.61 0-6.484-1.044-8.538-3.077-1.956-1.977-2.923-4.62-2.923-7.978zm4.885 0c0 2.166.505 3.933 1.473 5.293 1.17 1.605 2.867 2.404 5.124 2.404 2.257 0 3.946-.785 5.124-2.404.967-1.36 1.472-3.127 1.472-5.293 0-2.166-.505-3.841-1.549-5.201-1.178-1.584-2.853-2.37-5.012-2.37-2.159 0-3.856.8-5.012 2.37-1.045 1.36-1.549 3.112-1.549 5.201h-.078.007zm22.958 10.676V32.498h4.676v17.89h9.078v3.358h-13.754zm17.406 0V32.498h6.393c9.001 0 13.494 3.526 13.494 10.627 0 7.102-4.493 10.62-13.494 10.62h-6.393zm4.696-17.889v14.532h2.615c2.068 0 3.856-.631 5.328-1.921 1.563-1.381 2.383-3.169 2.383-5.39 0-2.223-.799-4.024-2.383-5.384-1.472-1.248-3.246-1.879-5.328-1.879h-2.615v.042zm44.044-2.944l-.428 3.505a12.643 12.643 0 00-4.752-.911c-.968 0-1.774.203-2.405.617-.841.518-1.234 1.303-1.234 2.369 0 .946.877 1.766 2.65 2.46 2.853 1.059 4.494 1.732 4.956 2.012 1.774 1.115 2.643 2.699 2.643 4.753 0 2.201-.876 3.841-2.608 4.956-1.549.967-3.582 1.451-6.147 1.451-1.55 0-3.54-.28-5.987-.82l.428-3.842c1.766.877 3.54 1.304 5.327 1.304 1.045 0 1.942-.203 2.741-.63.932-.52 1.395-1.213 1.395-2.11 0-1.066-.876-1.942-2.65-2.643-3.035-1.248-4.675-1.942-4.921-2.11-1.773-1.101-2.649-2.65-2.649-4.662 0-2.215.841-3.897 2.537-5.012 1.437-.967 3.316-1.451 5.629-1.451 2.047 0 3.912.245 5.587.764h-.126.014zm10.55 20.834v-17.89h-6.688v-3.358h18.079v3.358h-6.687v17.89h-4.704zm12.618 0l9.092-21.227h5.292l9.169 21.227h-5.18l-2.012-4.865h-9.47l-2.047 4.864h-4.844zm15.078-8.216l-3.372-8.756h-.077l-3.371 8.756h6.82zm11.812 8.215V32.498h5.047c3.575 0 6.057.204 7.396.673 2.404.785 3.617 2.496 3.617 5.09 0 1.29-.428 2.369-1.304 3.28-.876.911-2.047 1.451-3.519 1.64v.057c1.044.09 1.879.82 2.517 2.2l3.743 8.314h-5.216l-2.818-6.63c-.371-.821-.743-1.36-1.135-1.641-.463-.337-1.171-.526-2.103-.526h-1.514v8.819h-4.676l-.035-.022v-.007zm4.662-17.889v5.72h1.549c3.316 0 4.956-.967 4.956-2.944 0-1.122-.54-1.92-1.598-2.348-.708-.28-1.809-.428-3.316-.428h-1.591zm27.731 17.89V32.498h4.683v17.89h9.078v3.358h-13.761zm17.013-21.248h4.676v21.248h-4.676V32.498zm10.137 21.248V32.498h5.797l8.93 15.878V32.498h4.494v21.226h-5.762l-8.966-15.877v15.877h-4.493v.022zm25.088 0V32.498h13.789v3.358h-9.092v5.236h8.328v3.358h-8.328v5.966h9.169v3.358h-13.866v-.03zm30.171 0V32.498h4.683v17.89h9.078v3.358h-13.761zm21.654 0v-17.89h-6.688v-3.358h18.079v3.358h-6.688v17.89h-4.703zm15.043 0V32.498h6.393c9.001 0 13.494 3.526 13.494 10.627 0 7.102-4.493 10.62-13.494 10.62h-6.393zm4.683-17.89v14.532h2.607c2.068 0 3.856-.631 5.314-1.921 1.563-1.381 2.383-3.169 2.383-5.39 0-2.223-.799-4.024-2.383-5.384-1.472-1.248-3.246-1.879-5.314-1.879h-2.607v.042zm19.775 13.62h4.675v4.27h-4.675v-4.27z" fill="#0A63A4"/></g><defs><clipPath id="clip0_92_1938"><path fill="#fff" transform="translate(.857)" d="M0 0h477.581v81H0z"/></clipPath></defs></svg>