<svg width="316" height="196" fill="none" xmlns="http://www.w3.org/2000/svg"><g clip-path="url(#clip0_509_406)"><path d="M228.41 132.805c0 11.711-9.496 21.206-21.194 21.206a21.195 21.195 0 01-19.581-13.094c-3.274-7.919-1.469-17.042 4.597-23.095 6.054-6.054 15.176-7.871 23.107-4.598a21.192 21.192 0 0113.083 19.581m-101.553 0a21.223 21.223 0 01-6.21 14.996 21.25 21.25 0 01-15.007 6.21 21.178 21.178 0 01-19.57-13.106 21.202 21.202 0 014.61-23.095 21.19 21.19 0 0123.095-4.586 21.203 21.203 0 0113.082 19.581zm112.252-20.122l-39.584-61.788A16.737 16.737 0 00185.938 43a16.071 16.071 0 00-11.614 4.585 16.037 16.037 0 00-4.838 11.505v9.905c0 1.3-1.035 2.36-2.323 2.395h-21.471a2.395 2.395 0 01-2.322-2.395v-9.387c.072-7.546-5.007-14.177-12.312-16.103a16.114 16.114 0 00-17.463 6.98l-39.848 62.198a37.667 37.667 0 00-4.26 30.677 37.683 37.683 0 0020.17 23.517 37.702 37.702 0 0051.847-22.398 3.457 3.457 0 013.31-2.37h23.252c1.492 0 2.84.95 3.309 2.37a37.704 37.704 0 0051.908 22.506 37.667 37.667 0 0020.17-23.589 37.737 37.737 0 00-4.356-30.737" fill="#133D60"/><path d="M157.21 95.461l4.237 8.473c.12.24.361.409.626.457l9.375 1.408a.843.843 0 01.469 1.432l-6.751 6.656a.837.837 0 00-.241.734l1.553 9.351c.108.686-.602 1.204-1.216.879l-8.413-4.369a.868.868 0 00-.77 0l-8.412 4.369c-.614.325-1.324-.205-1.216-.879l1.553-9.351a.837.837 0 00-.241-.734l-6.752-6.656c-.493-.481-.216-1.323.47-1.432l9.375-1.408a.849.849 0 00.626-.457l4.236-8.473a.845.845 0 011.505 0" fill="#FDC200"/></g><defs><clipPath id="clip0_509_406"><path fill="#fff" transform="translate(67.958 43)" d="M0 0h177v127.572H0z"/></clipPath></defs></svg>