<svg width="316" height="196" fill="none" xmlns="http://www.w3.org/2000/svg"><g clip-path="url(#clip0_509_404)"><path d="M207.055 86.878c-15.712 0-28.439-12.727-28.439-28.439S191.35 30 207.055 30s28.439 12.727 28.439 28.439-12.734 28.439-28.439 28.439z" fill="#133D60"/><path d="M195.035 131.812h-66.051a4.717 4.717 0 00-4.72 4.721 4.723 4.723 0 004.72 4.728h66.051a4.725 4.725 0 004.728-4.728 4.714 4.714 0 00-4.728-4.721zm-13.947-33.036h-52.08a4.717 4.717 0 00-4.721 4.72 4.718 4.718 0 004.721 4.721h52.08a4.718 4.718 0 004.721-4.721c0-2.61-2.119-4.72-4.721-4.72zM156.41 65.754h-27.402a4.717 4.717 0 00-4.721 4.72 4.718 4.718 0 004.721 4.721h27.402c2.61 0 4.721-2.11 4.721-4.72s-2.119-4.72-4.721-4.72m43.891 111.237h-76.59c-10.324 0-18.69-8.366-18.69-18.69V48.698c0-10.316 8.366-18.683 18.69-18.683h60.831c-8.389 6.655-13.793 16.918-13.793 28.44 0 20.018 16.288 36.314 36.314 36.314 4.183 0 8.175-.745 11.921-2.057v65.597c0 10.324-8.375 18.691-18.691 18.691l.008-.008z" fill="#133D60"/><path d="M208.168 40.431l4.828 9.657a.957.957 0 00.714.514l10.677 1.612a.958.958 0 01.53 1.627l-7.692 7.576a.939.939 0 00-.268.837l1.765 10.646a.955.955 0 01-1.381 1.006l-9.58-4.974a.945.945 0 00-.883 0l-9.579 4.974a.956.956 0 01-1.382-1.006l1.766-10.646a.962.962 0 00-.269-.837l-7.691-7.576c-.56-.553-.253-1.512.53-1.627l10.669-1.612a.957.957 0 00.714-.514l4.828-9.657a.957.957 0 011.712 0" fill="#FDC200"/></g><defs><clipPath id="clip0_509_404"><path fill="#fff" transform="translate(105.021 30)" d="M0 0h130.482v147H0z"/></clipPath></defs></svg>