<svg width="316" height="196" fill="none" xmlns="http://www.w3.org/2000/svg"><g clip-path="url(#clip0_509_408)"><path d="M199.072 125.438a4.277 4.277 0 002.382 5.559l15.701 6.286a4.093 4.093 0 001.589.312 4.3 4.3 0 003.971-2.688 4.283 4.283 0 00-2.383-5.559l-15.701-6.293c-2.158-.869-4.684.183-5.559 2.383zm-82.185-32.862a4.281 4.281 0 00-2.369-5.566l-15.626-6.286c-2.179-.869-4.69.176-5.566 2.376-.883 2.186.183 4.677 2.376 5.566l15.619 6.272a4.269 4.269 0 005.566-2.369m.333 33.88c-.93-2.186-3.462-3.197-5.607-2.267l-15.443 6.557a4.259 4.259 0 00-2.26 5.607 4.294 4.294 0 003.943 2.614c.557 0 1.127-.109 1.67-.34l15.43-6.557a4.25 4.25 0 002.26-5.607m25.592-63.884l-6.653-15.43c-.923-2.171-3.482-3.203-5.62-2.226a4.278 4.278 0 00-2.234 5.621l6.659 15.43a4.285 4.285 0 005.621 2.226 4.276 4.276 0 002.227-5.62zm1.167 93.032a4.278 4.278 0 00-2.382-5.559 4.25 4.25 0 00-5.56 2.382l-6.286 15.701a4.28 4.28 0 002.383 5.56 4.337 4.337 0 001.588.312 4.274 4.274 0 003.965-2.688l6.292-15.708zm42.324-105.732a4.285 4.285 0 00-2.376-5.566 4.282 4.282 0 00-5.566 2.375l-6.286 15.627a4.264 4.264 0 002.369 5.56 4.132 4.132 0 001.602.311 4.268 4.268 0 003.965-2.68l6.292-15.627zm1.351 117.611l-6.659-15.531c-.944-2.186-3.476-3.184-5.621-2.24a4.275 4.275 0 00-2.246 5.621l6.659 15.524a4.298 4.298 0 005.62 2.254c2.172-.93 3.17-3.449 2.247-5.621m34.362-85.958c-.923-2.172-3.455-3.204-5.614-2.234l-15.429 6.653a4.286 4.286 0 00-2.241 5.62 4.28 4.28 0 003.931 2.58c.57 0 1.147-.115 1.697-.346l15.429-6.653a4.283 4.283 0 002.234-5.62" fill="#133D60"/></g><defs><clipPath id="clip0_509_408"><path fill="#fff" transform="translate(93.02 44)" d="M0 0h130v130.007H0z"/></clipPath></defs></svg>