<svg width="26" height="25" fill="none" xmlns="http://www.w3.org/2000/svg"><path d="M23.25 0H1.816C.834 0 .036.81.036 1.802v21.396C.036 24.19.834 25 1.816 25H23.25c.983 0 1.786-.81 1.786-1.802V1.802C25.036.81 24.233 0 23.25 0zM7.592 21.429H3.887V9.498h3.71v11.93h-.005zM5.739 7.869a2.15 2.15 0 010-4.298c1.183 0 2.149.966 2.149 2.149 0 1.188-.96 2.148-2.149 2.148zm15.742 13.56h-3.705v-5.804c0-1.384-.028-3.164-1.925-3.164-1.93 0-2.227 1.507-2.227 3.064v5.904H9.92V9.498h3.555v1.63h.05c.497-.938 1.707-1.926 3.51-1.926 3.75 0 4.447 2.472 4.447 5.686v6.54z" fill="#fff"/></svg>