<svg width="25" height="25" fill="none" xmlns="http://www.w3.org/2000/svg"><path d="M24.974 4.688c-.936.468-1.873.625-2.966.78 1.093-.624 1.873-1.562 2.186-2.812-.937.625-2.03.938-3.278 1.25-.937-.937-2.342-1.562-3.746-1.562-2.654 0-4.995 2.344-4.995 5.156 0 .469 0 .781.156 1.094C8.117 8.438 4.214 6.406 1.717 3.28c-.468.781-.624 1.563-.624 2.656 0 1.72.936 3.282 2.34 4.22-.78 0-1.56-.313-2.34-.626 0 2.5 1.717 4.531 4.058 5-.468.156-.937.156-1.405.156-.312 0-.624 0-.936-.156.624 2.031 2.497 3.594 4.838 3.594-1.717 1.406-3.902 2.188-6.4 2.188H0c2.341 1.406 4.995 2.343 7.804 2.343 9.366 0 14.517-7.812 14.517-14.531V7.5c1.092-.781 2.029-1.719 2.653-2.813z" fill="#fff"/></svg>