<svg width="50" height="48" fill="none" xmlns="http://www.w3.org/2000/svg"><path d="M26.064.737l6.718 13.436c.192.385.566.652.993.716l14.857 2.243c1.079.16 1.516 1.495.737 2.264L38.667 29.937c-.31.3-.449.737-.374 1.165l2.456 14.814c.182 1.078-.95 1.9-1.922 1.399l-13.33-6.921a1.315 1.315 0 00-1.227 0l-13.33 6.92c-.972.503-2.104-.32-1.922-1.398l2.456-14.814a1.336 1.336 0 00-.374-1.165L.398 19.396c-.78-.77-.352-2.104.737-2.264l14.846-2.243c.428-.064.801-.331.994-.716L23.693.737c.491-.983 1.89-.983 2.381 0" fill="#fff"/></svg>