<svg width="146" height="140" fill="none" xmlns="http://www.w3.org/2000/svg"><path d="M76.505 2.163l19.703 39.624a3.945 3.945 0 002.905 2.127l43.566 6.598c3.173.487 4.446 4.417 2.151 6.688l-31.375 31.079a3.954 3.954 0 00-1.111 3.443l7.207 43.698c.52 3.19-2.797 5.624-5.647 4.128l-39.102-20.407a3.86 3.86 0 00-3.604 0l-39.102 20.407c-2.85 1.496-6.185-.938-5.647-4.128l7.207-43.698a3.903 3.903 0 00-1.111-3.443L1.17 57.2c-2.295-2.271-1.022-6.201 2.151-6.688l43.566-6.598a3.913 3.913 0 002.905-2.127L69.495 2.163c1.434-2.884 5.54-2.884 6.992 0" fill="#FDC200"/></svg>