<svg width="211" height="38" viewBox="0 0 211 38" fill="none" xmlns="http://www.w3.org/2000/svg">
<path d="M66.316 19.6534V23.1304C66.316 25.7311 65.8904 27.4272 64.812 28.6428C63.7904 29.8018 62.2012 30.5368 59.8458 30.5368C57.4904 30.5368 55.9012 29.8018 54.8795 28.6428C53.8012 27.4272 53.3755 25.7311 53.3755 23.1304V17.9855C53.3755 15.4697 53.8295 13.717 54.9363 12.4732C55.9863 11.3142 57.5755 10.6357 59.7606 10.6357C61.7471 10.6357 63.166 11.2011 64.1877 12.1622C65.1525 13.1234 65.8336 14.5368 66.0039 16.9396L62.4282 17.2223C62.3147 16.1764 62.0877 15.3848 61.6904 14.8195C61.2647 14.2258 60.6404 13.9149 59.7606 13.9149C58.8809 13.9149 58.2282 14.1976 57.8025 14.7064C57.3201 15.2718 57.0931 16.0916 57.0931 17.4767V23.611C57.0931 25.1657 57.3485 25.8442 57.7741 26.3813C58.2282 26.9467 58.966 27.2293 59.9025 27.2293C60.839 27.2293 61.5485 26.9467 62.0025 26.3813C62.4282 25.8442 62.6836 25.1657 62.6836 23.611V22.565H59.789V19.6534H66.316V19.6534Z" fill="white"/>
<path d="M68.9836 28.6125C67.9335 27.397 67.4795 25.7574 67.4795 23.1002V18.0684C67.4795 15.3829 67.9335 13.7433 68.9836 12.5278C70.0336 11.3122 71.7363 10.6338 73.9214 10.6338C76.1065 10.6338 77.8092 11.3122 78.8592 12.5278C79.9092 13.7433 80.3633 15.3829 80.3633 18.0684V23.1002C80.3633 25.7574 79.9092 27.397 78.8592 28.6125C77.8092 29.8281 76.1065 30.5348 73.9214 30.5348C71.7363 30.5348 70.0336 29.8281 68.9836 28.6125ZM75.9363 26.4359C76.4471 25.8422 76.6457 25.0507 76.6457 23.7786V17.39C76.6457 16.1179 76.4471 15.2981 75.9363 14.7045C75.4822 14.2239 74.8295 13.9129 73.9214 13.9129C73.0133 13.9129 72.3606 14.2239 71.9065 14.7045C71.3957 15.2981 71.1971 16.1179 71.1971 17.39V23.7786C71.1971 25.0507 71.3957 25.8422 71.9065 26.4359C72.3606 26.9447 73.0133 27.2274 73.9214 27.2274C74.8295 27.2274 75.4822 26.9447 75.9363 26.4359Z" fill="white"/>
<path d="M82.6313 10.8623H86.3205V27.171H91.9111V30.3089H82.6313V10.8623Z" fill="white"/>
<path d="M93.6992 10.8623H99.3749C101.759 10.8623 103.405 11.3711 104.455 12.4736C105.618 13.6609 106.072 15.5266 106.072 17.986V23.1874C106.072 25.6467 105.618 27.4842 104.455 28.6997C103.405 29.7739 101.759 30.311 99.3749 30.311H93.6992V10.8623ZM99.1763 27.2559C100.34 27.2559 101.163 27.0297 101.645 26.4643C102.184 25.8424 102.326 24.8813 102.326 23.7506V17.4184C102.326 16.2594 102.184 15.2983 101.645 14.7046C101.163 14.111 100.34 13.8849 99.1763 13.8849H97.3884V27.2559H99.1763V27.2559Z" fill="white"/>
<path d="M113.73 28.8104C112.907 27.9058 112.396 26.6338 112.254 25.0507L115.688 24.655C115.83 25.5313 116.028 26.0684 116.34 26.4641C116.738 27.086 117.39 27.4253 118.27 27.4253C119.661 27.4253 120.484 26.6338 120.484 25.2486V25.1073C120.484 23.609 119.944 23.0154 117.788 22.1108L116.624 21.6302C113.786 20.4995 112.424 18.973 112.424 16.0896V15.8352C112.424 12.6409 114.581 10.6338 118.185 10.6338C119.803 10.6338 121.051 11.0013 121.988 11.7645C123.18 12.6691 123.861 14.1108 124.003 16.0613L120.597 16.4571C120.512 15.6373 120.313 15.0154 119.973 14.5631C119.576 14.026 119.008 13.7433 118.157 13.7433C116.794 13.7433 116.057 14.5066 116.057 15.8069V15.9483C116.057 17.2769 116.653 17.8988 118.611 18.6903L119.803 19.1991C122.896 20.443 124.116 21.6585 124.116 24.768V25.1355C124.116 28.4147 122.044 30.5348 118.299 30.5348C116.312 30.5348 114.751 29.9412 113.73 28.8104Z" fill="white"/>
<path d="M128.629 14.0001H124.741V10.8623H136.206V14.0001H132.318V30.3089H128.629V14.0001V14.0001Z" fill="white"/>
<path d="M144.433 26.1534H139.892C139.665 27.5385 139.438 28.9237 139.24 30.3089H135.437C136.601 23.7788 137.906 17.164 139.268 10.8623H145.001C146.391 17.1096 147.725 23.781 148.917 30.3089H145.086C144.859 28.8954 144.66 27.482 144.433 26.1534V26.1534ZM143.922 23.1004C143.78 22.3371 143.667 21.6022 143.525 20.9237C143.184 18.8318 142.702 16.2877 142.248 14.1675H141.964C141.567 16.3159 141.084 18.8318 140.772 20.9237C140.659 21.6022 140.517 22.3371 140.403 23.1004H143.922V23.1004Z" fill="white"/>
<path d="M159.018 30.3089C158.223 28.0191 157.315 25.5032 156.463 23.1569H154.392V30.3089H150.703V10.8623H156.265C160.295 10.8623 162.536 12.2192 162.536 16.4312V17.5337C162.536 20.2192 161.572 21.7739 159.84 22.5372C160.919 25.1096 161.969 27.7103 162.934 30.311H159.018V30.3089ZM156.151 20.1322C157.882 20.1322 158.819 19.4538 158.819 17.4184V16.5704C158.819 14.5633 157.939 13.8849 156.151 13.8849H154.392V20.1322H156.151V20.1322Z" fill="white"/>
<path d="M168.919 10.8623H172.608V27.171H178.199V30.3089H168.919V10.8623Z" fill="white"/>
<path d="M179.502 10.8623H183.191V30.3089H179.502V10.8623Z" fill="white"/>
<path d="M185.972 10.8623H189.151L192.698 18.0708C193.436 19.5973 194.372 21.6609 194.911 22.9329H194.997C194.968 21.4347 194.94 19.5407 194.94 18.1273V10.8623H198.345V30.3089H195.224L191.591 22.9025C190.825 21.3195 189.945 19.3689 189.406 18.0686H189.321C189.349 19.5668 189.378 21.4608 189.378 22.9025V30.3089H185.972V10.8623Z" fill="white"/>
<path d="M201.04 10.8623H210.998V14.0001H204.727V18.9188H210.544V22.0566H204.727V27.1732H210.998V30.311H201.04V10.8623Z" fill="white"/>
<path fill-rule="evenodd" clip-rule="evenodd" d="M41.964 4.86021C43.1646 10.7053 45.1773 16.4286 48.6831 21.2342C48.8119 21.4103 48.6984 21.6669 48.4277 21.8039C41.8505 25.1265 33.457 26.8901 25.4914 28.11C16.0611 29.3364 7.92739 31.1521 0.629771 37.2668C0.249937 37.5299 -0.0338466 37.4342 0.00326359 37.0406C1.01834 26.2247 1.21699 14.715 0.297962 3.3946C0.265218 2.98145 0.468233 2.48566 0.749834 2.30953C6.90795 -1.39041 13.0047 0.110572 19.1484 1.62312C19.7604 1.77379 20.3728 1.92457 20.9858 2.07033C27.753 3.88821 34.566 5.20161 41.3724 4.52317C41.654 4.49707 41.9204 4.64711 41.964 4.86021ZM29.1831 16.6677C30.1742 15.6 31.1391 14.5627 32.093 13.5472H32.0908C32.4772 13.1341 32.0144 12.4448 31.305 12.3491C29.5608 12.1208 27.821 11.812 26.0877 11.4532C25.8083 11.3945 25.5441 11.2184 25.3761 10.9792C24.337 9.48746 23.3197 7.91964 22.309 6.2779C21.8964 5.60815 21.0276 5.44724 20.829 6.03C20.7734 6.19225 20.7178 6.35494 20.6619 6.51808C20.2262 7.79149 19.7811 9.09223 19.3205 10.4203C19.2376 10.6617 19.0302 10.8183 18.7661 10.84C17.1245 10.9748 15.4807 11.1596 13.8239 11.4532C13.1515 11.5728 12.9725 12.5274 13.5292 13.0428C14.8957 14.3127 16.2775 15.5608 17.6921 16.7612C17.9191 16.9547 18.0501 17.233 18.0391 17.5114C17.9758 19.2423 17.8951 20.9732 17.799 22.7084C17.7554 23.4195 18.6176 23.8413 19.2551 23.4477C20.8159 22.4888 22.3308 21.6125 23.8131 20.784C24.051 20.6513 24.361 20.6339 24.6491 20.734C26.4348 21.3559 28.2685 21.9082 30.1502 22.367C30.9208 22.5519 31.5669 22.0256 31.2526 21.4842C30.4885 20.1447 29.7747 18.753 29.1002 17.3135C28.9932 17.0808 29.0238 16.8394 29.1831 16.6677Z" fill="white"/>
</svg>
