<svg width="479" height="81" viewBox="0 0 479 81" fill="none" xmlns="http://www.w3.org/2000/svg">
<g clip-path="url(#clip0_92_1938)">
<path d="M19.7069 65.8793L10.5869 9.0216C10.5869 9.0216 17.2183 5.90919 29.689 8.36968C42.1177 10.8302 41.7111 9.49127 50.0039 8.61503C58.8014 7.66167 63.4209 10.4236 65.3767 10.9984C68.433 11.9097 73.9709 10.9774 79.0601 11.3559C83.0838 11.6503 82.8455 12.2322 87.2057 13.7814C90.8579 15.0852 95.5405 14.244 95.5405 14.244C95.5405 14.244 95.2812 20.0202 98.5969 25.2426C101.99 30.5562 103.609 35.4421 104.079 43.132C104.548 50.829 103.707 59.2339 107.394 64.6386C110.696 69.4824 110.058 71.1578 110.058 73.1557C110.058 75.504 109.799 76.3242 109.483 76.3452C109.091 76.3662 108.348 76.0297 108.348 76.0297L108.516 74.817C108.516 74.817 100.504 72.2794 95.2461 71.5364C89.2666 70.6952 82.2567 73.8707 76.6697 73.3239C69.0079 72.5808 63.456 68.0524 57.4765 67.9753C50.824 67.8982 47.1158 70.4498 40.1409 69.0759C33.173 67.6949 30.7686 65.4237 26.6327 64.9961C22.4968 64.5264 19.7209 65.8934 19.7209 65.8934" fill="#0A63A4"/>
<path d="M18.8588 81.0003C17.7582 81.0003 17.1133 80.7059 16.931 80.1241L16.917 80.061L5.68707 9.8493C3.19153 9.37262 1.2708 7.85146 0.997417 5.88166C0.857218 4.87223 1.15164 3.86981 1.85263 2.97253C2.93917 1.57755 4.88794 0.610179 7.07505 0.378851C10.7903 0.000313491 14.092 1.8229 14.4635 4.45163C14.6037 5.46808 14.3093 6.48452 13.5943 7.3888C12.9914 8.15289 12.1222 8.79079 11.0988 9.24644C13.8957 26.1825 22.539 78.5188 22.4829 79.1216C22.4339 79.9278 21.4945 80.8251 19.4967 80.9793C19.2724 81.0003 19.0621 81.0073 18.8658 81.0073M17.7933 79.8787C17.8493 79.9698 18.2279 80.1942 19.4266 80.096C21.0248 79.9769 21.5716 79.346 21.5927 79.0585C21.5226 77.972 14.2112 33.5359 10.2506 9.57591C9.66172 9.76518 9.03082 9.89136 8.38591 9.96146C7.78305 10.0245 7.1872 10.0316 6.6194 9.98248L17.7933 79.8787ZM8.07046 1.22005C7.77604 1.22005 7.47461 1.23407 7.16617 1.26911C5.21741 1.47941 3.49296 2.32061 2.55363 3.51931C2.00685 4.2203 1.76851 4.99841 1.88067 5.75548C2.1821 7.92857 5.06319 9.40767 8.28777 9.06418C10.2295 8.8679 11.954 8.03372 12.8933 6.84203C13.4471 6.13402 13.6854 5.34891 13.5803 4.57781C13.3069 2.62905 10.9235 1.22706 8.07046 1.22706" fill="#0A63A4"/>
<path d="M47.9922 40.9802L27.0815 28.0118L51.9458 29.6311L55.8995 18.1138L63.4071 29.9115L87.6756 31.3486L70.5292 41.9686L82.7896 61.7858L60.1685 48.2916L41.2837 59.7108L47.9922 40.9802Z" fill="#998943"/>
<path d="M105.768 68.4875C105.705 68.4875 105.642 68.4735 105.586 68.4455C105.565 68.4385 103.511 67.5131 99.228 66.4056C93.8934 65.0106 89.3369 65.6275 83.5818 66.4126C78.4294 67.1066 76.3194 67.2117 69.8633 64.576C64.5077 62.4029 54.841 63.1109 54.7428 63.1179C53.3338 63.0969 51.6374 63.3633 49.8358 63.6507C45.6018 64.3166 40.3303 65.1508 35.851 62.8095C30.1309 59.8162 23.7168 60.391 23.6537 60.398C23.4083 60.4191 23.191 60.2438 23.17 59.9985C23.149 59.7531 23.3242 59.5358 23.5696 59.5078C23.8429 59.4797 30.3131 58.8979 36.2716 62.0173C40.4916 64.2255 45.3845 63.4544 49.7027 62.7674C51.5463 62.48 53.2917 62.2066 54.7218 62.2276C55.0863 62.1996 64.6479 61.4986 70.1998 63.7488C76.4737 66.3004 78.3804 66.2093 83.4696 65.5293C89.3299 64.7302 93.9565 64.0993 99.4663 65.5433C103.834 66.679 105.887 67.5973 105.972 67.6393C106.196 67.7445 106.294 68.0038 106.196 68.2282C106.119 68.3894 105.958 68.4875 105.789 68.4875M94.4051 21.7872C94.321 21.7872 94.2439 21.7662 94.1668 21.7171C94.1387 21.7031 91.482 20.0277 87.2339 18.9202C83.1962 17.8617 82.369 17.9107 78.8851 18.107C77.8196 18.1701 76.4877 18.2402 74.7492 18.3033C74.2095 18.3173 73.6907 18.3383 73.2 18.3594C68.3351 18.5416 65.3909 18.6468 60.9326 16.4527C56.1378 14.0973 48.1605 15.0156 48.0834 15.0226C46.0365 15.0997 44.3541 15.3591 42.7278 15.6185C38.8162 16.2353 35.4304 16.7611 29.1635 14.4618C20.5202 11.3073 14.8492 13.3963 14.7931 13.4173C14.5618 13.5085 14.3024 13.3893 14.2183 13.158C14.1342 12.9266 14.2463 12.6673 14.4776 12.5832C14.723 12.492 20.4992 10.347 29.4789 13.6276C35.5285 15.8498 38.8092 15.3381 42.5946 14.7422C44.2419 14.4829 45.9523 14.2165 48.0203 14.1394C48.3217 14.1043 56.299 13.186 61.3322 15.6605C65.5942 17.7565 68.4473 17.6514 73.172 17.4761C73.6697 17.4551 74.1884 17.4411 74.7282 17.42C76.4596 17.3569 77.7845 17.2868 78.85 17.2237C82.4461 17.0205 83.3014 16.9784 87.4723 18.0649C91.8675 19.2076 94.5523 20.897 94.6645 20.9741C94.8748 21.1073 94.9309 21.3806 94.7977 21.5909C94.7136 21.7241 94.5664 21.7942 94.4191 21.7942" fill="white"/>
<path d="M21.0811 58.933C21.0811 58.933 21.018 58.933 20.99 58.9259C20.7516 58.8769 20.5904 58.6385 20.6395 58.4002C25.2801 35.5267 13.938 17.7214 13.8258 17.5462C13.6926 17.3429 13.7487 17.0625 13.959 16.9293C14.1623 16.7961 14.4427 16.8522 14.5759 17.0625C14.695 17.2448 26.2334 35.3375 21.5157 58.5825C21.4737 58.7928 21.2844 58.94 21.0811 58.94" fill="white"/>
<path d="M148.613 33.0241L148.319 36.6202C146.545 35.8561 144.533 35.4986 142.297 35.4986C139.647 35.4986 137.545 36.2276 135.995 37.7137C134.558 39.1157 133.815 40.9383 133.815 43.1955C133.815 45.4527 134.523 47.2402 135.96 48.6773C137.397 50.1143 139.332 50.8013 141.793 50.8013C142.963 50.8013 143.994 50.7102 144.905 50.5069V44.969H139.949V41.6183H149.377V53.0585C146.391 53.7875 143.896 54.1591 141.814 54.1591C137.902 54.1591 134.825 53.2828 132.567 51.5514C130.184 49.6867 128.985 47.0229 128.985 43.518C128.985 40.013 130.121 37.1038 132.399 35.113C134.67 33.1362 137.825 32.1338 141.814 32.1338C144.218 32.1338 146.489 32.4282 148.669 33.01L148.613 33.0311V33.0241ZM153.759 43.0693C153.759 39.7536 154.761 37.1038 156.78 35.127C158.792 33.1502 161.61 32.1478 165.241 32.1478C168.872 32.1478 171.634 33.1502 173.681 35.1831C175.658 37.1599 176.66 39.7887 176.66 43.0693C176.66 46.35 175.693 49.0348 173.716 51.0116C171.683 53.0795 168.83 54.124 165.22 54.124C161.61 54.124 158.736 53.0795 156.682 51.0466C154.726 49.0698 153.759 46.4271 153.759 43.0693ZM158.644 43.0693C158.644 45.2354 159.149 47.0019 160.117 48.3618C161.287 49.9671 162.984 50.7662 165.241 50.7662C167.498 50.7662 169.187 49.9811 170.365 48.3618C171.332 47.0019 171.837 45.2354 171.837 43.0693C171.837 40.9032 171.332 39.2279 170.288 37.8679C169.11 36.2837 167.435 35.4986 165.276 35.4986C163.117 35.4986 161.42 36.2977 160.264 37.8679C159.219 39.2279 158.715 40.9803 158.715 43.0693H158.637H158.644ZM181.602 53.7455V32.4983H186.278V50.3877H195.356V53.7455H181.602ZM199.008 53.7455V32.4983H205.401C214.402 32.4983 218.895 36.0243 218.895 43.1254C218.895 50.2265 214.402 53.7455 205.401 53.7455H199.008ZM203.704 35.8561V50.3877H206.319C208.387 50.3877 210.175 49.7568 211.647 48.467C213.21 47.086 214.03 45.2985 214.03 43.0763C214.03 40.8542 213.231 39.0526 211.647 37.6927C210.175 36.4449 208.401 35.814 206.319 35.814H203.704V35.8491V35.8561ZM247.748 32.9119L247.32 36.4169C245.771 35.8 244.208 35.5056 242.568 35.5056C241.6 35.5056 240.794 35.7089 240.163 36.1225C239.322 36.6412 238.929 37.4263 238.929 38.4918C238.929 39.4382 239.806 40.2583 241.579 40.9523C244.432 42.0108 246.073 42.6838 246.535 42.9642C248.309 44.0787 249.178 45.663 249.178 47.7169C249.178 49.918 248.302 51.5584 246.57 52.6729C245.021 53.6403 242.988 54.124 240.423 54.124C238.873 54.124 236.883 53.8436 234.436 53.3038L234.864 49.4624C236.63 50.3386 238.404 50.7662 240.191 50.7662C241.236 50.7662 242.133 50.563 242.932 50.1353C243.864 49.6166 244.327 48.9226 244.327 48.0254C244.327 46.9598 243.451 46.0836 241.677 45.3826C238.642 44.1348 237.002 43.4408 236.756 43.2726C234.983 42.172 234.107 40.6228 234.107 38.611C234.107 36.3958 234.948 34.7135 236.644 33.5989C238.081 32.6315 239.96 32.1478 242.273 32.1478C244.32 32.1478 246.185 32.3932 247.86 32.9119H247.734H247.748ZM258.298 53.7455V35.8561H251.61V32.4983H269.689V35.8561H263.002V53.7455H258.305H258.298ZM270.916 53.7455L280.008 32.5193H285.3L294.469 53.7455H289.289L287.277 48.8806H277.807L275.76 53.7455H270.916ZM285.994 45.5298L282.622 36.7744H282.545L279.174 45.5298H285.994ZM297.806 53.7455V32.4983H302.853C306.428 32.4983 308.91 32.7016 310.249 33.1713C312.653 33.9564 313.866 35.6668 313.866 38.2605C313.866 39.5503 313.438 40.6298 312.562 41.5411C311.686 42.4524 310.515 42.9922 309.043 43.1815V43.2376C310.087 43.3287 310.922 44.0577 311.56 45.4387L315.303 53.7525H310.087L307.269 47.1211C306.898 46.3009 306.526 45.7611 306.134 45.4807C305.671 45.1443 304.963 44.955 304.031 44.955H302.517V53.7735H297.841L297.806 53.7525V53.7455ZM302.468 35.8561V41.5762H304.017C307.333 41.5762 308.973 40.6088 308.973 38.632C308.973 37.5104 308.433 36.7113 307.375 36.2837C306.667 36.0033 305.566 35.8561 304.059 35.8561H302.475H302.468ZM330.199 53.7455V32.4983H334.882V50.3877H343.96V53.7455H330.206H330.199ZM347.212 32.4983H351.888V53.7455H347.212V32.4983ZM357.349 53.7455V32.4983H363.146L372.076 48.3758V32.4983H376.57V53.7244H370.808L361.842 37.8469V53.7244H357.349V53.7455ZM382.437 53.7455V32.4983H396.226V35.8561H387.134V41.0925H395.462V44.4503H387.134V50.4157H396.303V53.7735H382.437V53.7525V53.7455ZM412.608 53.7455V32.4983H417.291V50.3877H426.369V53.7455H412.615H412.608ZM434.262 53.7455V35.8561H427.574V32.4983H445.653V35.8561H438.965V53.7455H434.269H434.262ZM449.305 53.7455V32.4983H455.698C464.699 32.4983 469.192 36.0243 469.192 43.1254C469.192 50.2265 464.699 53.7455 455.698 53.7455H449.305ZM453.988 35.8561V50.3877H456.595C458.663 50.3877 460.451 49.7568 461.909 48.467C463.472 47.086 464.292 45.2985 464.292 43.0763C464.292 40.8542 463.493 39.0526 461.909 37.6927C460.437 36.4449 458.663 35.814 456.595 35.814H453.988V35.8491V35.8561ZM473.763 49.4764H478.438V53.7455H473.763V49.4764Z" fill="#0A63A4"/>
</g>
<defs>
<clipPath id="clip0_92_1938">
<rect width="477.581" height="81" fill="white" transform="translate(0.857422)"/>
</clipPath>
</defs>
</svg>
