<svg width="458" height="82" viewBox="0 0 458 82" fill="none" xmlns="http://www.w3.org/2000/svg">
<g clip-path="url(#clip0_92_1946)">
<path d="M144.103 42.5668V50.0976C144.103 55.7304 143.181 59.4039 140.845 62.0366C138.633 64.5469 135.191 66.1388 130.089 66.1388C124.987 66.1388 121.546 64.5469 119.333 62.0366C116.997 59.4039 116.075 55.7304 116.075 50.0976V38.9544C116.075 33.5053 117.059 29.7093 119.456 27.0153C121.73 24.5051 125.172 23.0356 129.905 23.0356C134.207 23.0356 137.28 24.2602 139.493 26.3419C141.583 28.4235 143.058 31.4848 143.427 36.6891L135.682 37.3013C135.436 35.036 134.945 33.3216 134.084 32.0971C133.162 30.8114 131.81 30.1379 129.905 30.1379C127.999 30.1379 126.586 30.7501 125.664 31.8522C124.619 33.0767 124.127 34.8523 124.127 37.8524V51.1384C124.127 54.5058 124.68 55.9753 125.602 57.1386C126.586 58.3631 128.184 58.9753 130.212 58.9753C132.24 58.9753 133.777 58.3631 134.76 57.1386C135.682 55.9753 136.235 54.5058 136.235 51.1384V48.873H129.966V42.5668H144.103V42.5668Z" fill="#133D60"/>
<path d="M149.88 61.97C147.606 59.3373 146.622 55.7862 146.622 50.031V39.1327C146.622 33.3162 147.606 29.7651 149.88 27.1324C152.154 24.4997 155.842 23.0303 160.574 23.0303C165.307 23.0303 168.995 24.4997 171.269 27.1324C173.543 29.7651 174.527 33.3162 174.527 39.1327V50.031C174.527 55.7862 173.543 59.3373 171.269 61.97C168.995 64.6028 165.307 66.1334 160.574 66.1334C155.842 66.1334 152.154 64.6028 149.88 61.97ZM164.938 57.2556C166.045 55.9699 166.475 54.2556 166.475 51.5004V37.6633C166.475 34.9081 166.045 33.1326 164.938 31.8468C163.955 30.806 162.541 30.1325 160.574 30.1325C158.608 30.1325 157.194 30.806 156.21 31.8468C155.104 33.1326 154.674 34.9081 154.674 37.6633V51.5004C154.674 54.2556 155.104 55.9699 156.21 57.2556C157.194 58.3577 158.608 58.97 160.574 58.97C162.541 58.97 163.955 58.3577 164.938 57.2556Z" fill="#133D60"/>
<path d="M179.44 23.5249H187.431V58.8476H199.539V65.6437H179.44V23.5249Z" fill="#133D60"/>
<path d="M203.411 23.5249H215.704C220.867 23.5249 224.432 24.627 226.706 27.0148C229.226 29.5863 230.209 33.6272 230.209 38.9539V50.2195C230.209 55.5461 229.226 59.5258 226.706 62.1585C224.432 64.4851 220.867 65.6484 215.704 65.6484H203.411V23.5249ZM215.274 59.0313C217.794 59.0313 219.576 58.5415 220.621 57.317C221.789 55.97 222.096 53.8883 222.096 51.4393V37.7246C222.096 35.2144 221.789 33.1327 220.621 31.8469C219.576 30.5612 217.794 30.0714 215.274 30.0714H211.401V59.0313H215.274V59.0313Z" fill="#133D60"/>
<path d="M246.795 62.3986C245.012 60.4394 243.906 57.6842 243.599 54.2556L251.036 53.3984C251.343 55.2964 251.773 56.4597 252.449 57.3169C253.31 58.6638 254.724 59.3986 256.629 59.3986C259.641 59.3986 261.423 57.6842 261.423 54.6841V54.378C261.423 51.133 260.255 49.8473 255.584 47.8881L253.064 46.8472C246.918 44.3982 243.967 41.092 243.967 34.8469V34.2959C243.967 27.3773 248.639 23.0303 256.445 23.0303C259.948 23.0303 262.653 23.8262 264.681 25.4793C267.262 27.4385 268.737 30.5611 269.045 34.7857L261.669 35.6428C261.485 33.8673 261.054 32.5203 260.317 31.5407C259.456 30.3774 258.227 29.7651 256.383 29.7651C253.433 29.7651 251.835 31.4182 251.835 34.2346V34.5408C251.835 37.4184 253.126 38.7654 257.367 40.4797L259.948 41.5818C266.648 44.2757 269.291 46.9084 269.291 53.6433V54.4392C269.291 61.5415 264.804 66.1334 256.69 66.1334C252.388 66.1334 249.007 64.8477 246.795 62.3986Z" fill="#133D60"/>
<path d="M279.063 30.321H270.643V23.5249H295.474V30.321H287.054V65.6437H279.063V30.321V30.321Z" fill="#133D60"/>
<path d="M313.295 56.6435H303.46C302.969 59.6436 302.477 62.6437 302.047 65.6437H293.811C296.331 51.5005 299.158 37.1736 302.108 23.5249H314.524C317.536 37.0559 320.425 51.5052 323.006 65.6437H314.708C314.217 62.5824 313.786 59.5211 313.295 56.6435V56.6435ZM312.188 50.0311C311.881 48.378 311.635 46.7861 311.328 45.3167C310.59 40.7859 309.545 35.2756 308.562 30.6836H307.947C307.087 35.3368 306.042 40.7859 305.366 45.3167C305.12 46.7861 304.813 48.378 304.567 50.0311H312.188V50.0311Z" fill="#133D60"/>
<path d="M344.883 65.6437C343.162 60.6844 341.195 55.2353 339.351 50.1535H334.864V65.6437H326.874V23.5249H338.921C347.649 23.5249 352.505 26.4638 352.505 35.5864V37.9743C352.505 43.7907 350.415 47.1582 346.665 48.8113C349.001 54.3828 351.275 60.0156 353.365 65.6484H344.883V65.6437ZM338.675 43.6023C342.424 43.6023 344.453 42.1329 344.453 37.7246V35.8879C344.453 31.5408 342.547 30.0714 338.675 30.0714H334.864V43.6023H338.675V43.6023Z" fill="#133D60"/>
<path d="M366.328 23.5249H374.318V58.8476H386.427V65.6437H366.328V23.5249Z" fill="#133D60"/>
<path d="M389.25 23.5249H397.24V65.6437H389.25V23.5249Z" fill="#133D60"/>
<path d="M403.264 23.5249H410.148L417.831 39.1375C419.429 42.4438 421.457 46.9133 422.625 49.6684H422.809C422.748 46.4235 422.686 42.3213 422.686 39.26V23.5249H430.062V65.6437H423.301L415.434 49.6025C413.774 46.1738 411.869 41.9492 410.701 39.1328H410.516C410.578 42.3778 410.639 46.48 410.639 49.6025V65.6437H403.264V23.5249Z" fill="#133D60"/>
<path d="M435.896 23.5249H457.466V30.321H443.882V40.9743H456.482V47.7704H443.882V58.8523H457.466V65.6484H435.896V23.5249Z" fill="#133D60"/>
<path d="M105.909 45.9902C98.3163 35.5817 93.9571 23.1858 91.3566 10.5261C91.2621 10.0646 90.6853 9.73962 90.0754 9.79613C75.3334 11.2656 60.5773 8.4209 45.9205 4.48359C31.2636 0.998419 16.7581 -3.81018 2.09182 5.00166C1.48191 5.38315 1.0422 6.45696 1.11312 7.3518C3.10362 31.8705 2.67337 56.7989 0.474842 80.2249C0.394466 81.0774 1.00911 81.2846 1.83178 80.7148C17.6375 67.4711 35.2541 63.5385 55.6791 60.8822C72.9316 58.2401 91.1108 54.4205 105.356 47.2241C105.943 46.9274 106.188 46.3716 105.909 45.9902" fill="#133D60"/>
<path d="M69.9774 29.3418C67.9112 31.5412 65.8214 33.7877 63.6749 36.1002C63.3298 36.4722 63.2636 36.995 63.4953 37.499C64.9562 40.6168 66.5023 43.631 68.1571 46.5322C68.8379 47.7049 67.4384 48.8446 65.7694 48.4443C61.6939 47.4505 57.7224 46.2543 53.8548 44.9073C53.2307 44.6907 52.5594 44.7283 52.044 45.0156C48.8337 46.81 45.5525 48.708 42.1719 50.785C40.7914 51.6375 38.9238 50.7238 39.0184 49.1837C39.2264 45.4254 39.4013 41.6765 39.5384 37.9275C39.5621 37.3247 39.2784 36.7219 38.7867 36.3027C35.7229 33.7029 32.7301 30.9996 29.7704 28.2491C28.5647 27.1329 28.9524 25.0653 30.4086 24.8063C33.9972 24.1705 37.5574 23.7702 41.1129 23.4782C41.6849 23.4311 42.1341 23.092 42.3138 22.5692C43.439 19.3242 44.5218 16.1546 45.5808 13.0603C46.0111 11.7981 47.8928 12.1467 48.7864 13.5972C50.9755 17.1531 53.1787 20.5488 55.4293 23.7796C55.7933 24.2977 56.3654 24.6792 56.9706 24.8063C60.7246 25.5834 64.4929 26.2522 68.2705 26.7467C69.8071 26.9539 70.8095 28.4469 69.9726 29.3418" fill="#FDC200"/>
</g>
<defs>
<clipPath id="clip0_92_1946">
<rect width="457" height="81.035" fill="white" transform="translate(0.470703)"/>
</clipPath>
</defs>
</svg>
