<svg width="316" height="196" viewBox="0 0 316 196" fill="none" xmlns="http://www.w3.org/2000/svg">
<g clip-path="url(#clip0_509_404)">
<path d="M207.055 86.878C191.343 86.878 178.616 74.1514 178.616 58.439C178.616 42.7265 191.35 30 207.055 30C222.76 30 235.494 42.7265 235.494 58.439C235.494 74.1514 222.76 86.878 207.055 86.878Z" fill="#133D60"/>
<path d="M195.035 131.812H128.984C126.375 131.812 124.264 133.923 124.264 136.533C124.264 139.143 126.375 141.261 128.984 141.261H195.035C197.645 141.261 199.763 139.15 199.763 136.533C199.763 133.916 197.653 131.812 195.035 131.812ZM181.088 98.7756H129.008C126.398 98.7756 124.287 100.886 124.287 103.496C124.287 106.106 126.398 108.217 129.008 108.217H181.088C183.698 108.217 185.809 106.106 185.809 103.496C185.809 100.886 183.69 98.7756 181.088 98.7756ZM156.41 65.7541H129.008C126.398 65.7541 124.287 67.8649 124.287 70.4747C124.287 73.0845 126.398 75.1954 129.008 75.1954H156.41C159.02 75.1954 161.131 73.0845 161.131 70.4747C161.131 67.8649 159.012 65.7541 156.41 65.7541M200.301 176.992H123.711C113.387 176.992 105.021 168.626 105.021 158.302V48.6984C105.021 38.382 113.387 30.0154 123.711 30.0154H184.542C176.153 36.6703 170.749 46.9329 170.749 58.4544C170.749 78.473 187.037 94.7688 207.063 94.7688C211.246 94.7688 215.238 94.0242 218.984 92.7116V158.309C218.984 168.633 210.609 177 200.293 177L200.301 176.992Z" fill="#133D60"/>
<path d="M208.168 40.4315L212.996 50.0877C213.134 50.364 213.403 50.5559 213.71 50.602L224.387 52.2139C225.162 52.329 225.477 53.2885 224.917 53.8412L217.225 61.4172C217.003 61.6322 216.903 61.9469 216.957 62.2539L218.722 72.9003C218.853 73.6755 218.039 74.2666 217.341 73.9058L207.761 68.9319C207.485 68.786 207.155 68.786 206.878 68.9319L197.299 73.9058C196.6 74.2666 195.787 73.6755 195.917 72.9003L197.683 62.2539C197.736 61.9469 197.629 61.6322 197.414 61.4172L189.723 53.8412C189.163 53.2885 189.47 52.329 190.253 52.2139L200.922 50.602C201.229 50.5559 201.498 50.364 201.636 50.0877L206.464 40.4315C206.817 39.7253 207.823 39.7253 208.176 40.4315" fill="#FDC200"/>
</g>
<defs>
<clipPath id="clip0_509_404">
<rect width="130.482" height="147" fill="white" transform="translate(105.021 30)"/>
</clipPath>
</defs>
</svg>
