<svg width="316" height="196" viewBox="0 0 316 196" fill="none" xmlns="http://www.w3.org/2000/svg">
<g clip-path="url(#clip0_509_408)">
<path d="M199.072 125.438C198.196 127.623 199.255 130.115 201.454 130.997L217.155 137.283C217.678 137.5 218.207 137.595 218.744 137.595C220.434 137.595 222.043 136.57 222.715 134.907C223.59 132.721 222.525 130.23 220.332 129.348L204.631 123.055C202.473 122.186 199.947 123.238 199.072 125.438ZM116.887 92.5761C117.77 90.3835 116.704 87.8922 114.518 87.0098L98.892 80.7239C96.713 79.855 94.2014 80.9004 93.3257 83.0998C92.4433 85.2856 93.509 87.7768 95.7016 88.6661L111.321 94.9383C111.837 95.1488 112.38 95.2506 112.916 95.2506C114.62 95.2506 116.215 94.2392 116.887 92.5693M117.22 126.449C116.29 124.263 113.758 123.252 111.613 124.182L96.17 130.739C93.991 131.662 92.9727 134.174 93.9095 136.346C94.6087 137.975 96.1835 138.96 97.8534 138.96C98.41 138.96 98.9802 138.851 99.5233 138.62L114.953 132.063C117.139 131.146 118.15 128.628 117.213 126.456M142.805 62.5724L136.152 47.1429C135.229 44.9707 132.67 43.9389 130.532 44.9164C128.366 45.8532 127.362 48.3648 128.298 50.537L134.957 65.9665C135.657 67.5753 137.232 68.5392 138.888 68.5392C139.451 68.5392 140.028 68.4306 140.578 68.193C142.743 67.2562 143.741 64.7446 142.805 62.5724ZM143.972 155.604C144.848 153.412 143.782 150.92 141.59 150.045C139.377 149.149 136.906 150.228 136.03 152.427L129.744 168.128C128.869 170.321 129.934 172.812 132.127 173.688C132.643 173.891 133.179 174 133.715 174C135.406 174 137.014 172.982 137.68 171.312L143.972 155.604ZM186.296 49.8718C187.179 47.686 186.106 45.1811 183.92 44.3055C181.735 43.4298 179.237 44.482 178.354 46.6813L172.068 62.3077C171.179 64.4934 172.245 66.9915 174.437 67.8672C174.96 68.0844 175.496 68.1794 176.039 68.1794C177.73 68.1794 179.338 67.168 180.004 65.4981L186.296 49.8718V49.8718ZM187.647 167.483L180.988 151.952C180.044 149.766 177.512 148.768 175.367 149.712C173.188 150.642 172.191 153.16 173.121 155.333L179.78 170.857C180.486 172.479 182.061 173.45 183.717 173.45C184.287 173.45 184.85 173.342 185.4 173.111C187.572 172.181 188.57 169.662 187.647 167.49M222.009 81.5317C221.086 79.3595 218.554 78.3277 216.395 79.2984L200.966 85.9508C198.8 86.8876 197.795 89.3992 198.725 91.5714C199.425 93.187 200.999 94.1509 202.656 94.1509C203.226 94.1509 203.803 94.0355 204.353 93.8047L219.782 87.1523C221.948 86.2156 222.946 83.7039 222.016 81.5317" fill="#133D60"/>
<path d="M159.341 79.3866L166.801 94.307C167.018 94.7346 167.426 95.0333 167.901 95.108L184.396 97.5924C185.597 97.7757 186.079 99.2555 185.21 100.111L173.331 111.814C172.992 112.153 172.829 112.635 172.91 113.11L175.639 129.565C175.836 130.766 174.58 131.683 173.501 131.119L158.696 123.435C158.268 123.211 157.759 123.211 157.332 123.435L142.527 131.119C141.447 131.683 140.185 130.766 140.388 129.565L143.117 113.11C143.199 112.635 143.042 112.153 142.696 111.814L130.817 100.111C129.948 99.2555 130.43 97.7757 131.632 97.5924L148.127 95.108C148.602 95.0333 149.016 94.7346 149.226 94.307L156.687 79.3866C157.23 78.3005 158.784 78.3005 159.334 79.3866" fill="#FDC200"/>
</g>
<defs>
<clipPath id="clip0_509_408">
<rect width="130" height="130.007" fill="white" transform="translate(93.0205 44)"/>
</clipPath>
</defs>
</svg>
