<svg width="316" height="196" viewBox="0 0 316 196" fill="none" xmlns="http://www.w3.org/2000/svg">
<g clip-path="url(#clip0_509_406)">
<path d="M228.41 132.805C228.41 144.516 218.914 154.011 207.216 154.011C198.647 154.011 190.92 148.848 187.635 140.917C184.361 132.998 186.166 123.875 192.232 117.822C198.286 111.768 207.408 109.951 215.339 113.224C223.258 116.498 228.422 124.236 228.422 132.805M126.869 132.805C126.869 138.426 124.631 143.83 120.659 147.801C116.676 151.773 111.284 154.011 105.652 154.011C97.0826 154.011 89.3561 148.836 86.0826 140.905C82.809 132.986 84.6263 123.875 90.692 117.81C96.7457 111.756 105.868 109.939 113.787 113.224C121.706 116.51 126.869 124.236 126.869 132.805ZM239.121 112.683L199.537 50.8946C196.601 46.1648 191.498 43.2042 185.938 42.9996C181.605 42.9033 177.417 44.5521 174.324 47.585C171.219 50.6058 169.486 54.7579 169.486 59.0905V68.9954C169.486 70.2952 168.451 71.3543 167.163 71.3904H145.692C144.405 71.3543 143.37 70.2952 143.37 68.9954V59.608C143.442 52.062 138.363 45.4307 131.058 43.5051C124.342 41.8442 117.314 44.6484 113.595 50.4854L73.7466 112.683C67.9938 121.829 66.4413 132.998 69.4862 143.36C72.5311 153.734 79.8725 162.291 89.657 166.877C99.4295 171.462 110.706 171.643 120.623 167.358C130.54 163.074 138.146 154.745 141.504 144.479C141.974 143.059 143.309 142.096 144.814 142.109H168.066C169.558 142.109 170.906 143.059 171.375 144.479C174.709 154.781 182.315 163.146 192.244 167.454C202.173 171.763 213.474 171.594 223.283 166.985C233.079 162.388 240.433 153.795 243.453 143.396C246.474 133.01 244.898 121.817 239.097 112.659" fill="#133D60"/>
<path d="M157.21 95.4611L161.447 103.934C161.567 104.174 161.808 104.343 162.073 104.391L171.448 105.799C172.134 105.908 172.411 106.738 171.917 107.231L165.166 113.887C164.973 114.079 164.877 114.356 164.925 114.621L166.478 123.972C166.586 124.658 165.876 125.176 165.262 124.851L156.849 120.482C156.609 120.362 156.32 120.362 156.079 120.482L147.667 124.851C147.053 125.176 146.343 124.646 146.451 123.972L148.004 114.621C148.052 114.356 147.956 114.079 147.763 113.887L141.011 107.231C140.518 106.75 140.795 105.908 141.481 105.799L150.856 104.391C151.121 104.355 151.361 104.174 151.482 103.934L155.718 95.4611C156.031 94.8473 156.91 94.8473 157.223 95.4611" fill="#FDC200"/>
</g>
<defs>
<clipPath id="clip0_509_406">
<rect width="177" height="127.572" fill="white" transform="translate(67.958 43)"/>
</clipPath>
</defs>
</svg>
