<svg width="25" height="25" viewBox="0 0 25 25" fill="none" xmlns="http://www.w3.org/2000/svg">
<path d="M24.974 4.6875C24.0375 5.15625 23.1009 5.3125 22.0083 5.46875C23.1009 4.84375 23.8814 3.90625 24.1935 2.65625C23.257 3.28125 22.1644 3.59375 20.9157 3.90625C19.9792 2.96875 18.5744 2.34375 17.1696 2.34375C14.5161 2.34375 12.1748 4.6875 12.1748 7.5C12.1748 7.96875 12.1748 8.28125 12.3309 8.59375C8.11654 8.4375 4.21436 6.40625 1.71696 3.28125C1.2487 4.0625 1.09261 4.84375 1.09261 5.9375C1.09261 7.65625 2.02914 9.21875 3.43392 10.1562C2.65349 10.1562 1.87305 9.84375 1.09261 9.53125C1.09261 12.0312 2.80957 14.0625 5.15088 14.5312C4.68262 14.6875 4.21436 14.6875 3.7461 14.6875C3.43392 14.6875 3.12175 14.6875 2.80957 14.5312C3.43392 16.5625 5.30697 18.125 7.64828 18.125C5.93132 19.5312 3.7461 20.3125 1.2487 20.3125C0.780437 20.3125 0.468262 20.3125 0 20.3125C2.34131 21.7188 4.9948 22.6562 7.80437 22.6562C17.1696 22.6562 22.3205 14.8438 22.3205 8.125C22.3205 7.96875 22.3205 7.65625 22.3205 7.5C23.4131 6.71875 24.3496 5.78125 24.974 4.6875Z" fill="white"/>
</svg>
