<svg width="27" height="25" viewBox="0 0 27 25" fill="none" xmlns="http://www.w3.org/2000/svg">
<path d="M25.0064 0H2.21761C1.59326 0 1.125 0.46875 1.125 1.09375V24.0625C1.125 24.5312 1.59326 25 2.21761 25H13.612V17.1875H10.4902V12.5H13.612V9.375C13.612 6.09375 15.485 4.6875 18.2946 4.6875C19.6994 4.6875 21.1042 4.6875 21.4164 4.6875V9.375H19.8555C18.919 9.375 18.2946 10 18.2946 10.9375V12.5H22.3529L21.4164 17.1875H18.2946V25H25.0064C25.6307 25 26.099 24.5312 26.099 23.9062V1.09375C26.099 0.46875 25.6307 0 25.0064 0Z" fill="white"/>
</svg>
