<svg width="26" height="25" viewBox="0 0 26 25" fill="none" xmlns="http://www.w3.org/2000/svg">
<path d="M23.2504 0H1.81627C0.834124 0 0.0361328 0.809152 0.0361328 1.80246V23.1975C0.0361328 24.1908 0.834124 25 1.81627 25H23.2504C24.2326 25 25.0361 24.1908 25.0361 23.1975V1.80246C25.0361 0.809152 24.2326 0 23.2504 0ZM7.59194 21.4286H3.88658V9.49777H7.59752V21.4286H7.59194ZM5.73926 7.8683C4.55064 7.8683 3.59082 6.9029 3.59082 5.71987C3.59082 4.53683 4.55064 3.57143 5.73926 3.57143C6.92229 3.57143 7.8877 4.53683 7.8877 5.71987C7.8877 6.90848 6.92787 7.8683 5.73926 7.8683V7.8683ZM21.4814 21.4286H17.7761V15.625C17.7761 14.2411 17.7482 12.4609 15.8509 12.4609C13.9201 12.4609 13.6243 13.9676 13.6243 15.5246V21.4286H9.91895V9.49777H13.4736V11.1272H13.5239C14.0205 10.1897 15.2314 9.20201 17.0339 9.20201C20.7839 9.20201 21.4814 11.6741 21.4814 14.8884V21.4286V21.4286Z" fill="white"/>
</svg>
