<svg width="146" height="140" viewBox="0 0 146 140" fill="none" xmlns="http://www.w3.org/2000/svg">
<path d="M76.505 2.16325L96.2083 41.7868C96.782 42.9226 97.8577 43.7157 99.1127 43.914L142.679 50.512C145.852 50.9987 147.125 54.9286 144.83 57.2L113.455 88.2788C112.559 89.1801 112.129 90.46 112.344 91.7219L119.551 135.42C120.071 138.61 116.754 141.044 113.904 139.548L74.8018 119.141C73.6723 118.546 72.3277 118.546 71.1982 119.141L32.0964 139.548C29.2458 141.044 25.9111 138.61 26.4489 135.42L33.6562 91.7219C33.8713 90.46 33.4589 89.1801 32.5446 88.2788L1.16991 57.2C-1.12492 54.9286 0.147998 50.9987 3.32132 50.512L46.8873 43.914C48.1423 43.7157 49.2359 42.9226 49.7917 41.7868L69.495 2.16325C70.9293 -0.721085 75.0349 -0.721085 76.4871 2.16325" fill="#FDC200"/>
</svg>
